<?xml version="1.0" encoding="utf-8"?><svg viewBox="0 0 63 75" xmlns="http://www.w3.org/2000/svg" xmlns:xlink="http://www.w3.org/1999/xlink"><style>:root>svg{display:none}:root>svg:target{display:block}</style><svg viewBox="0 0 63 75" id="bitcoin"><g fill="#3E61FF"><path d="M32 17c-.189 0-.378-.043-.55-.128L16.68 9.587A1.213 1.213 0 0 1 16 8.5c0-.461.263-.88.68-1.087L31.45.129a1.245 1.245 0 0 1 1.101 0l14.77 7.285c.415.206.679.626.679 1.087 0 .46-.264.88-.68 1.086l-14.77 7.285A1.24 1.24 0 0 1 32 17zM19.983 8.5L32 14.429l12.017-5.927L32 2.572 19.983 8.501z"/><path d="M32 31a1.23 1.23 0 0 1-.55-.129l-14.77-7.333a1.222 1.222 0 0 1-.68-1.094V9h2.462v12.689L32 28.41l13.538-6.722V9H48v13.444c0 .464-.264.886-.68 1.094L32.55 30.87A1.233 1.233 0 0 1 32 31z"/><path d="M31 16h3v14h-3z"/><path d="M18 38c-.189 0-.378-.043-.55-.128L2.68 30.587A1.213 1.213 0 0 1 2 29.5c0-.461.263-.88.68-1.087l14.77-7.285a1.245 1.245 0 0 1 1.101 0l14.77 7.285c.415.206.679.626.679 1.087 0 .46-.264.88-.68 1.086l-14.77 7.285A1.24 1.24 0 0 1 18 38zM5.983 29.5L18 35.429l12.017-5.927L18 23.572 5.983 29.501z"/><path d="M18 51a1.23 1.23 0 0 1-.55-.129L2.68 43.538A1.222 1.222 0 0 1 2 42.444V29h2.462v12.689L18 48.41l13.538-6.722V29H34v13.444c0 .464-.264.886-.68 1.094L18.55 50.87A1.233 1.233 0 0 1 18 51z"/><path d="M16 36h3v14h-3zm30.5 2c-.183 0-.366-.043-.533-.128l-14.308-7.285A1.217 1.217 0 0 1 31 29.5c0-.461.255-.88.659-1.087l14.308-7.285a1.172 1.172 0 0 1 1.067 0l14.308 7.285c.402.206.658.626.658 1.087 0 .46-.256.88-.66 1.086l-14.307 7.285A1.17 1.17 0 0 1 46.5 38zm-11.642-8.5L46.5 35.429l11.641-5.927-11.641-5.93-11.642 5.929z"/><path d="M46.5 51c-.183 0-.366-.043-.533-.129l-14.308-7.333A1.226 1.226 0 0 1 31 42.444V29h2.385v12.689L46.5 48.41l13.115-6.722V29H62v13.444c0 .464-.256.886-.66 1.094L47.033 50.87c-.167.086-.35.129-.533.129z"/><path d="M45 36h3v14h-3zM32.2 61h-6c-.664 0-1.2-.56-1.2-1.25v-7.5c0-.692.536-1.25 1.2-1.25h6c2.647 0 4.8 2.242 4.8 5 0 2.757-2.153 5-4.8 5zm-4.8-2.5h4.8c1.324 0 2.4-1.122 2.4-2.5 0-1.379-1.076-2.5-2.4-2.5h-4.8v5z"/><path d="M32.2 68h-6c-.664 0-1.2-.56-1.2-1.25v-7.5c0-.692.536-1.25 1.2-1.25h6c2.647 0 4.8 2.242 4.8 5 0 2.757-2.153 5-4.8 5zm-4.8-2.5h4.8c1.324 0 2.4-1.122 2.4-2.5 0-1.379-1.076-2.5-2.4-2.5h-4.8v5zM28 49h3v4h-3zm4 0h3v4h-3z"/><path d="M28 67h3v4h-3zm4 0h3v4h-3zm-11-9h3v3h-3zm19 0h3v3h-3zm10 17c-2.758 0-5-2.243-5-5 0-2.758 2.242-5 5-5s5 2.242 5 5c0 2.757-2.242 5-5 5zm0-7.5a2.502 2.502 0 0 0-2.5 2.5c0 1.378 1.121 2.5 2.5 2.5s2.5-1.122 2.5-2.5c0-1.379-1.121-2.5-2.5-2.5z"/><path d="M49 49h3v18h-3zm9 18c-2.758 0-5-2.243-5-5 0-2.758 2.242-5 5-5s5 2.242 5 5c0 2.757-2.242 5-5 5zm0-7.5a2.502 2.502 0 0 0-2.5 2.5c0 1.378 1.121 2.5 2.5 2.5s2.5-1.122 2.5-2.5c0-1.379-1.121-2.5-2.5-2.5zM58 43h3v14h-3zM14 75c-2.758 0-5-2.243-5-5 0-2.758 2.242-5 5-5s5 2.242 5 5c0 2.757-2.242 5-5 5zm0-7.5a2.502 2.502 0 0 0-2.5 2.5c0 1.378 1.121 2.5 2.5 2.5s2.5-1.122 2.5-2.5c0-1.379-1.121-2.5-2.5-2.5z"/><path d="M12 49h3v18h-3zM5 67c-2.758 0-5-2.243-5-5 0-2.758 2.242-5 5-5s5 2.242 5 5c0 2.757-2.242 5-5 5zm0-7.5A2.502 2.502 0 0 0 2.5 62c0 1.378 1.121 2.5 2.5 2.5s2.5-1.122 2.5-2.5c0-1.379-1.121-2.5-2.5-2.5zM4 43h3v14H4z"/></g></svg></svg>