<?xml version="1.0" encoding="UTF-8"?>
<svg width="520px" height="177px" viewBox="0 0 520 177" version="1.1" xmlns="http://www.w3.org/2000/svg" xmlns:xlink="http://www.w3.org/1999/xlink">
    <!-- Generator: Sketch 49.1 (51147) - http://www.bohemiancoding.com/sketch -->
    <title>group_4_copy_7</title>
    <desc>Created with Sketch.</desc>
    <defs></defs>
    <g id="home_page" stroke="none" stroke-width="1" fill="none" fill-rule="evenodd">
        <g id="Group-4-Copy-7" transform="translate(260.000000, 88.500000) scale(1, 1) translate(-260.000000, -88.500000) ">
            <polygon id="Triangle" fill="#486BFF" points="205 176.5 520 0 520 176.5"></polygon>
            <g id="Group-28" transform="translate(57.000000, 83.000000)">
                <polygon id="Triangle" fill="#03CAFF" transform="translate(223.500000, 46.750000) rotate(-180.000000) translate(-223.500000, -46.750000) " points="156 6.83120227e-13 291 4.54747351e-13 291 93.5"></polygon>
                <polygon id="Triangle" fill="#486BFF" transform="translate(78.500000, 46.750000) scale(-1, 1) rotate(-180.000000) translate(-78.500000, -46.750000) " points="1.8189894e-12 6.83120227e-13 157 4.54747351e-13 157 93.5"></polygon>
            </g>
            <g id="Group-27" transform="translate(1.000000, 140.000000)">
                <polygon id="Triangle-Copy" fill="#03CAFF" points="113.272349 36.572618 59.5231018 36.572618 59.5231018 0.201906317"></polygon>
                <polygon id="Triangle-Copy-2" fill="#486BFF" points="0.425251258 36.7033461 59.4870065 -1.70530257e-13 59.4870065 36.7033461"></polygon>
            </g>
        </g>
    </g>
</svg>